<?xml version="1.0" standalone="no"?>
<!DOCTYPE svg PUBLIC "-//W3C//DTD SVG 20010904//EN"
 "http://www.w3.org/TR/2001/REC-SVG-20010904/DTD/svg10.dtd">
<svg version="1.0" xmlns="http://www.w3.org/2000/svg"
 width="500.000000pt" height="500.000000pt" viewBox="0 0 500.000000 500.000000"
 preserveAspectRatio="xMidYMid meet">

<g transform="translate(0.000000,500.000000) scale(0.100000,-0.100000)"
fill="#000000" stroke="none">
<path d="M2320 4198 c-124 -11 -316 -58 -443 -108 -542 -212 -943 -695 -1059
-1272 -19 -95 -22 -145 -22 -308 0 -209 8 -279 54 -455 150 -571 614 -1044
1183 -1204 183 -51 296 -64 517 -58 288 8 451 48 705 172 478 233 812 667 927
1201 20 95 23 136 23 324 0 238 -16 350 -75 531 -142 435 -449 795 -850 998
-309 156 -608 212 -960 179z m502 -127 c669 -145 1174 -686 1268 -1361 16
-112 16 -334 1 -435 -88 -573 -457 -1046 -987 -1263 -139 -57 -268 -88 -441
-108 -127 -15 -166 -15 -277 -5 -237 22 -385 61 -574 151 -565 270 -913 825
-912 1456 1 217 35 398 113 589 214 528 678 896 1252 991 121 20 432 12 557
-15z"/>
<path d="M2434 4000 c-32 -13 -54 -50 -54 -91 0 -79 100 -120 155 -64 34 33
35 102 2 133 -27 25 -73 35 -103 22z m65 -54 c7 -8 11 -27 9 -43 -2 -23 -9
-29 -32 -31 -31 -4 -46 10 -46 44 0 40 45 59 69 30z"/>
<path d="M2233 3978 c-53 -26 -40 -84 23 -100 60 -17 60 -40 -1 -31 -40 5 -45
4 -39 -11 14 -36 73 -47 112 -20 36 25 25 94 -14 94 -7 0 -25 5 -40 10 -21 8
-24 14 -16 22 9 9 15 9 23 1 11 -11 59 -5 59 8 0 13 -43 39 -65 38 -11 0 -30
-5 -42 -11z"/>
<path d="M2627 3970 c-34 -27 -44 -78 -23 -118 18 -34 33 -42 85 -42 40 0 79
29 66 49 -8 14 -42 14 -50 1 -9 -15 -31 -12 -49 6 -21 21 -20 40 4 64 l20 20
37 -20 c47 -25 53 -25 53 -1 0 28 -47 61 -85 61 -18 0 -44 -9 -58 -20z"/>
<path d="M2825 3960 c-2 -4 -13 -44 -23 -88 -19 -81 -19 -82 0 -88 11 -3 24
-2 28 3 7 7 40 140 40 161 0 12 -38 23 -45 12z"/>
<path d="M1993 3914 l-41 -15 27 -82 c27 -80 42 -96 70 -78 10 7 11 13 1 31
-17 31 -4 37 24 10 19 -17 31 -21 52 -16 l27 7 -27 28 c-22 23 -25 32 -18 52
11 28 6 49 -16 67 -20 15 -46 14 -99 -4z m70 -41 c9 -9 -12 -33 -29 -33 -8 0
-14 9 -14 20 0 19 28 28 43 13z"/>
<path d="M2910 3848 l-61 -73 27 -9 c18 -6 29 -5 34 3 11 19 60 2 70 -24 5
-12 18 -25 29 -28 20 -5 21 -1 21 93 0 93 -1 98 -22 104 -13 3 -26 6 -30 6 -4
0 -34 -33 -68 -72z m68 -33 c-2 -10 -7 -12 -17 -5 -13 7 -13 11 -1 25 15 18
24 8 18 -20z"/>
<path d="M1853 3857 c-24 -11 -43 -24 -43 -28 0 -11 70 -159 76 -159 2 0 27
11 54 25 36 18 48 29 43 41 -4 11 -13 14 -27 9 -35 -11 -49 -10 -53 1 -2 6 8
16 22 22 27 13 24 47 -4 39 -9 -2 -22 -6 -30 -8 -26 -7 -23 21 4 33 25 11 31
38 10 44 -5 1 -29 -7 -52 -19z"/>
<path d="M3085 3780 c-21 -44 -37 -81 -34 -84 2 -2 23 -13 46 -25 42 -21 42
-21 53 -1 6 11 7 20 2 20 -4 0 -16 6 -26 13 -17 13 -16 17 14 77 25 50 29 65
18 71 -26 17 -34 8 -73 -71z"/>
<path d="M1678 3752 c-23 -21 -31 -38 -31 -61 0 -63 65 -115 119 -95 38 13 66
55 62 90 l-3 29 -36 -37 c-50 -53 -89 -47 -89 14 0 22 6 29 28 34 15 3 38 10
52 16 l25 10 -25 14 c-38 21 -67 17 -102 -14z"/>
<path d="M3290 3724 c-36 -16 -64 -71 -54 -109 12 -49 77 -79 129 -59 14 6 14
8 -1 25 -9 11 -27 19 -40 19 -13 0 -28 9 -34 19 -8 16 -5 25 12 46 27 30 54
26 68 -11 5 -12 18 -28 30 -34 18 -10 20 -8 20 23 0 23 -8 42 -25 60 -32 31
-64 38 -105 21z"/>
<path d="M2265 3665 c-109 -23 -199 -54 -285 -96 l-85 -42 63 -19 63 -19 65
26 c148 59 205 69 404 69 201 1 234 -5 398 -65 78 -29 87 -30 130 -19 80 22
80 25 -9 67 -99 47 -187 77 -287 98 -92 19 -371 19 -457 0z"/>
<path d="M1506 3619 c-35 -41 -34 -83 3 -120 36 -35 86 -39 124 -9 28 22 43
71 29 95 -8 15 -10 15 -22 0 -8 -10 -19 -27 -25 -39 -16 -32 -62 -34 -76 -2
-15 33 -5 56 24 56 25 0 62 32 50 43 -3 4 -23 7 -44 7 -29 0 -43 -6 -63 -31z"/>
<path d="M3449 3592 c-19 -20 -47 -51 -62 -68 l-27 -30 41 -33 c29 -24 44 -30
52 -22 7 7 6 16 -7 30 -18 20 -17 22 29 76 26 30 46 57 44 58 -2 1 -11 8 -20
15 -13 9 -21 5 -50 -26z"/>
<path d="M3536 3478 c-65 -62 -69 -86 -27 -129 40 -39 69 -37 130 12 56 44 56
46 38 71 -12 15 -17 13 -58 -22 -49 -44 -61 -47 -80 -24 -12 15 -8 22 34 58
50 45 55 57 33 76 -12 9 -25 2 -70 -42z"/>
<path d="M1359 3471 c-47 -47 -34 -117 27 -146 42 -20 77 -11 109 27 34 40 33
82 -4 119 -22 21 -39 29 -66 29 -27 0 -44 -8 -66 -29z m99 -33 c19 -19 14 -56
-9 -68 -16 -9 -26 -8 -45 5 -39 26 -26 75 21 75 12 0 26 -5 33 -12z"/>
<path d="M1842 3448 c-48 -61 -98 -230 -86 -293 5 -26 1 -41 -16 -64 -37 -52
-100 -197 -120 -275 -25 -99 -42 -293 -38 -436 l3 -115 27 45 27 45 1 -34 c0
-63 22 -211 31 -211 5 0 14 20 20 45 6 25 15 45 19 45 4 0 13 -19 19 -42 29
-98 84 -192 149 -256 35 -34 68 -62 72 -62 5 0 10 20 12 45 l3 46 47 -65 c68
-94 156 -153 274 -182 23 -6 26 -4 19 15 -4 14 22 -6 70 -52 95 -93 116 -105
149 -88 13 8 59 48 101 90 50 49 75 68 71 54 -9 -29 -3 -29 77 0 86 31 160 87
214 161 25 34 47 63 50 66 3 3 4 -16 2 -42 -3 -27 -1 -48 2 -48 13 0 97 70
121 101 34 45 76 130 104 207 24 69 25 69 44 -1 18 -66 26 -47 42 92 l12 112
26 -43 25 -43 3 100 c5 132 -15 359 -38 450 -20 80 -64 182 -110 257 -25 40
-30 59 -30 111 0 95 -57 259 -95 273 -7 3 -56 -8 -109 -25 -217 -70 -443 -89
-751 -63 -147 12 -213 25 -334 67 -85 29 -95 30 -109 13z m148 -82 c15 -6 -25
-2 -76 9 l-29 6 25 -15 c14 -8 34 -16 45 -16 38 -1 -7 -20 -50 -21 -35 -1 -37
-2 -15 -9 l25 -8 -25 -1 c-14 -1 -32 -6 -40 -11 -12 -8 -10 -10 10 -10 24 0
24 -1 -7 -20 -35 -21 -44 -37 -16 -26 13 5 11 0 -6 -18 -14 -14 -26 -24 -28
-23 -5 6 27 119 47 164 l19 42 53 -18 c29 -10 60 -21 68 -25z m1190 -88 c15
-60 10 -76 -15 -48 -16 18 -16 20 -2 14 28 -10 20 2 -15 25 -32 20 -33 21 -8
22 20 1 17 4 -15 14 -36 11 -38 13 -15 17 18 4 14 6 -15 7 -43 1 -88 21 -49
21 11 0 29 7 40 16 15 12 16 15 2 10 -9 -2 -34 -7 -55 -10 -30 -5 -24 -1 27
18 l65 23 22 -41 c12 -23 27 -62 33 -88z m-762 28 c65 -9 99 -9 165 0 109 17
268 17 338 0 95 -22 170 -75 249 -177 l35 -44 -47 38 c-25 20 -49 37 -53 37
-4 0 22 -31 58 -70 35 -38 80 -93 100 -122 60 -88 99 -254 112 -473 l5 -90
-15 45 c-9 25 -21 79 -28 120 -12 75 -12 75 -17 30 l-5 -45 -12 60 c-6 33 -15
85 -19 115 -3 30 -11 64 -15 75 -13 29 0 -145 17 -230 8 -38 16 -131 19 -205
l5 -135 -19 40 c-11 22 -25 70 -31 108 -7 37 -14 67 -17 67 -3 0 -3 -33 1 -72
10 -98 10 -104 -13 -173 -12 -36 -18 -46 -14 -25 8 50 0 37 -42 -68 -37 -92
-54 -117 -35 -51 20 70 9 85 -15 19 l-23 -65 -2 115 -2 115 -18 -60 -19 -60 5
60 4 60 -15 -55 c-59 -208 -97 -293 -161 -354 -49 -47 -109 -84 -120 -73 -4 3
3 55 15 114 27 136 26 152 -2 83 -22 -53 -73 -140 -82 -140 -2 0 3 20 12 46
16 46 11 76 -6 33 -25 -65 -72 -161 -76 -157 -3 3 4 30 14 61 11 32 18 57 16
57 -6 0 -44 -75 -61 -119 l-14 -36 6 38 c4 20 4 37 1 37 -3 0 -19 -36 -37 -80
-22 -55 -38 -81 -53 -86 -26 -8 -38 8 -74 100 -21 52 -29 65 -31 48 -3 -19 -9
-12 -32 37 -16 34 -31 61 -34 61 -3 0 6 -31 19 -70 13 -38 22 -70 19 -70 -5 0
-72 142 -88 184 -3 10 -9 16 -12 13 -4 -3 1 -27 10 -53 9 -26 16 -50 16 -53 0
-15 -65 95 -86 146 -29 72 -30 59 -3 -79 11 -60 18 -112 14 -116 -10 -10 -75
30 -121 74 -23 23 -54 64 -67 90 -27 53 -97 266 -97 295 0 10 -4 20 -8 23 -5
3 -5 -20 0 -51 12 -74 3 -79 -13 -8 -7 31 -15 58 -18 60 -3 2 -5 -49 -4 -113
l2 -117 -25 65 -24 65 4 -45 c3 -25 8 -55 11 -65 18 -53 -18 17 -46 93 -18 45
-34 82 -36 82 -3 0 -2 -15 1 -32 3 -18 -5 -1 -18 39 -20 60 -22 79 -14 117 5
24 8 62 6 83 -3 34 -5 30 -16 -32 -7 -38 -22 -88 -33 -110 l-19 -40 5 140 c2
77 11 169 18 205 17 76 31 255 18 225 -5 -11 -14 -58 -20 -105 -6 -47 -15 -98
-20 -115 -9 -29 -9 -28 -11 15 -2 38 -6 26 -25 -68 -13 -63 -26 -117 -30 -120
-11 -10 3 180 20 287 29 174 77 270 203 404 65 67 60 74 -12 15 l-51 -43 32
41 c84 107 166 168 257 190 66 16 239 16 344 0z m-529 -1326 c11 -24 11 -24
-3 -6 -9 11 -16 24 -16 30 0 12 5 7 19 -24z m1232 7 c-10 -9 -11 -8 -5 6 3 10
9 15 12 12 3 -3 0 -11 -7 -18z m-540 -310 c-10 -9 -11 -8 -5 6 3 10 9 15 12
12 3 -3 0 -11 -7 -18z"/>
<path d="M2310 3305 c0 -3 18 -14 39 -25 61 -31 58 -42 -3 -14 -31 14 -70 28
-89 31 -37 6 -127 -15 -109 -26 6 -3 -9 -15 -35 -25 -32 -13 -41 -21 -31 -27
9 -6 9 -9 1 -9 -21 0 -83 -61 -83 -80 0 -11 -4 -22 -10 -25 -21 -13 -9 -25 17
-19 l27 7 -37 -50 c-53 -72 -87 -151 -86 -198 l1 -40 10 43 c16 74 17 43 2
-82 -8 -65 -13 -121 -10 -123 2 -3 13 10 23 29 l18 33 7 -114 c9 -130 29 -223
59 -283 24 -47 39 -38 39 22 0 32 5 26 68 -79 37 -63 83 -132 103 -154 l36
-41 7 35 7 34 16 -45 c16 -49 33 -73 33 -48 0 8 -5 29 -11 47 -24 69 1 34 86
-119 49 -88 91 -160 94 -160 3 0 46 72 95 160 86 153 111 187 87 119 -6 -18
-11 -39 -10 -48 1 -21 38 58 40 84 0 11 6 2 13 -20 l12 -40 41 52 c22 29 67
98 99 153 56 96 59 100 62 68 5 -59 11 -65 33 -32 30 48 58 175 65 296 l7 109
20 -31 c11 -17 21 -30 22 -28 2 2 -3 55 -10 118 -17 139 -17 148 1 90 l14 -45
-5 52 c-4 56 -36 127 -84 187 -37 47 -38 50 -6 42 25 -6 35 7 15 19 -6 4 -8
11 -4 16 3 5 -13 28 -35 51 -23 22 -41 44 -41 48 0 4 -21 17 -47 28 -27 12
-41 22 -33 22 11 0 10 4 -4 12 -38 22 -127 15 -189 -14 -64 -30 -69 -20 -6 12
46 24 50 32 10 20 -44 -12 -67 -27 -95 -61 -15 -17 -28 -30 -30 -28 -2 2 -11
19 -21 38 l-17 35 -15 -34 c-19 -47 -19 -47 -49 -11 -14 17 -35 36 -46 42 -25
13 -78 29 -78 24z m16 -170 c27 -19 56 -38 64 -42 8 -3 27 -17 42 -31 35 -32
45 -24 16 14 -19 26 -18 26 15 -5 l37 -35 37 35 c24 22 29 24 14 7 -32 -37
-18 -49 17 -15 16 15 31 27 35 27 4 0 28 16 54 36 26 20 49 31 51 26 2 -6 18
-8 35 -6 33 5 147 -42 163 -67 5 -9 2 -10 -9 -6 -46 19 -49 17 -19 -10 30 -27
42 -65 23 -77 -4 -3 -18 6 -31 19 -23 24 -87 52 -96 42 -3 -3 8 -8 25 -12 51
-11 44 -23 -12 -23 -29 0 -63 -5 -75 -11 -19 -10 -22 -9 -22 6 0 30 -17 1 -40
-71 -25 -75 -25 -74 39 -103 29 -12 42 -13 77 -3 24 7 42 16 41 20 -1 4 17 28
41 53 23 26 42 41 42 34 0 -7 9 -30 20 -52 12 -23 20 -59 20 -87 0 -54 -21
-160 -28 -140 -2 9 -14 -2 -29 -27 -13 -23 -25 -41 -27 -41 -1 0 -3 14 -3 30
0 20 3 26 9 18 4 -7 8 -8 8 -3 0 6 -5 17 -10 25 -7 12 -11 8 -16 -18 -7 -36
-24 -53 -24 -25 0 10 -9 36 -20 58 -18 36 -20 37 -15 10 3 -16 9 -39 12 -50 3
-11 -13 7 -35 40 -37 55 -82 106 -82 93 0 -3 12 -26 26 -52 14 -25 22 -51 18
-57 -4 -8 -3 -9 5 -5 8 5 10 1 7 -16 -20 -96 -30 -129 -46 -156 -23 -38 -42
-35 -86 16 l-32 35 59 55 59 54 -41 49 c-22 27 -48 49 -57 49 -14 0 -14 -2 -3
-9 11 -7 6 -13 -19 -26 -32 -17 -34 -16 -47 1 -13 17 -13 17 -26 0 -13 -17
-15 -18 -47 -1 -25 13 -30 19 -19 26 11 7 11 9 -3 9 -9 0 -34 -21 -56 -47
l-40 -46 23 -31 c13 -17 38 -40 55 -51 36 -24 37 -29 5 -70 -29 -39 -59 -49
-78 -26 -28 31 -68 199 -45 185 6 -4 9 -1 6 7 -3 8 6 37 19 64 l24 50 -33 -35
c-18 -19 -43 -48 -56 -65 l-23 -30 6 35 c5 30 4 32 -6 15 -7 -10 -18 -37 -25
-60 -10 -33 -13 -37 -19 -20 -4 11 -11 29 -16 40 -8 17 -8 17 -3 -4 4 -17 3
-21 -6 -16 -9 6 -9 2 0 -15 23 -42 2 -30 -34 20 -31 44 -37 61 -43 124 -5 64
-3 80 17 120 12 26 19 54 16 62 -3 9 14 -6 39 -32 24 -27 44 -54 45 -60 0 -6
19 -17 43 -24 36 -10 49 -9 78 3 64 29 64 28 39 103 -25 76 -40 101 -40 65 0
-20 -1 -21 -16 -7 -16 16 -37 20 -109 18 l-40 -2 30 15 c17 8 36 14 44 15 8 0
12 3 8 6 -10 11 -70 -15 -99 -43 l-27 -26 -11 28 c-9 23 -8 30 3 36 8 5 25 17
38 29 l24 20 -30 -6 -30 -6 25 21 c14 11 30 21 35 21 6 0 24 7 40 16 19 10 43
14 65 10 32 -5 34 -4 16 9 -42 32 5 13 50 -20z m240 -752 c37 -13 43 -19 53
-59 8 -31 15 -43 24 -38 8 5 8 3 -1 -7 -10 -11 -14 -11 -21 -1 -6 9 -12 8 -25
-7 -10 -11 -38 -28 -61 -37 -40 -15 -44 -15 -82 4 -22 11 -45 28 -52 36 -10
12 -17 13 -26 6 -10 -8 -19 -3 -35 20 -12 17 -20 34 -17 37 3 2 13 -10 23 -29
l18 -33 14 47 c14 42 20 48 66 67 28 11 58 17 66 14 8 -3 34 -12 56 -20z
m-196 -32 c0 -6 -4 -13 -10 -16 -5 -3 -10 1 -10 9 0 9 5 16 10 16 6 0 10 -4
10 -9z m280 -7 c0 -8 -4 -12 -10 -9 -5 3 -10 10 -10 16 0 5 5 9 10 9 6 0 10
-7 10 -16z m16 -32 c-18 -16 -18 -16 -6 6 6 13 14 21 18 18 3 -4 -2 -14 -12
-24z"/>
<path d="M2218 2813 c7 -3 16 -2 19 1 4 3 -2 6 -13 5 -11 0 -14 -3 -6 -6z"/>
<path d="M2768 2813 c7 -3 16 -2 19 1 4 3 -2 6 -13 5 -11 0 -14 -3 -6 -6z"/>
<path d="M2082 2775 c0 -16 2 -22 5 -12 2 9 2 23 0 30 -3 6 -5 -1 -5 -18z"/>
<path d="M2912 2770 c0 -14 2 -19 5 -12 2 6 2 18 0 25 -3 6 -5 1 -5 -13z"/>
<path d="M2345 1963 c8 -36 37 -81 42 -66 4 12 -33 93 -43 93 -4 0 -3 -12 1
-27z"/>
<path d="M2637 1966 c-9 -13 -19 -37 -23 -52 -7 -26 -6 -28 9 -16 17 14 42 80
34 88 -2 3 -11 -6 -20 -20z"/>
<path d="M1632 3315 c-254 -277 -363 -629 -308 -995 56 -371 299 -712 624
-875 354 -177 736 -177 1082 1 131 67 216 131 317 238 214 226 324 499 324
806 0 190 -43 384 -117 532 -45 89 -128 210 -187 273 l-57 60 6 -75 c5 -58 12
-81 29 -100 75 -84 163 -263 202 -407 24 -87 27 -117 27 -273 1 -162 -1 -183
-27 -275 -33 -121 -118 -296 -186 -386 -102 -134 -272 -270 -424 -339 -158
-71 -381 -108 -544 -90 -526 58 -923 450 -983 970 -14 120 -12 193 6 301 30
177 110 358 216 490 38 47 48 67 48 97 0 20 4 53 10 71 5 19 8 36 6 38 -2 2
-31 -26 -64 -62z"/>
<path d="M3705 3355 c-11 -7 -46 -29 -77 -49 l-57 -36 31 -50 c39 -63 72 -75
103 -37 11 15 28 27 37 27 9 0 24 10 32 21 17 24 10 49 -26 103 -21 30 -25 32
-43 21z m28 -96 c-7 -7 -15 -5 -27 7 -14 14 -15 19 -4 25 18 11 46 -17 31 -32z
m-59 -15 c3 -9 3 -20 0 -25 -8 -13 -34 9 -34 27 0 19 26 18 34 -2z"/>
<path d="M1270 3333 c-47 -17 -64 -87 -29 -119 20 -18 21 -18 62 4 47 24 60
27 55 11 -2 -6 -7 -9 -11 -7 -3 2 -14 -8 -23 -20 -12 -17 -13 -27 -5 -35 28
-28 100 50 86 94 -4 11 -17 25 -30 31 -19 8 -30 6 -58 -11 -37 -23 -57 -27
-57 -11 0 6 7 10 15 10 17 0 39 36 30 50 -7 11 -12 11 -35 3z"/>
<path d="M1087 2576 c-17 -42 -21 -45 -69 -51 l-50 -7 36 -37 c33 -34 35 -38
26 -76 -14 -58 -13 -59 26 -36 44 26 55 26 105 0 38 -19 40 -19 35 -2 -20 69
-20 73 18 112 l37 38 -51 7 c-49 7 -52 9 -70 51 -11 25 -21 45 -22 45 -2 0
-11 -20 -21 -44z"/>
<path d="M3861 2578 c-20 -44 -23 -46 -72 -53 l-51 -7 37 -38 c37 -38 38 -42
18 -113 -4 -17 -2 -17 36 2 50 26 61 26 105 0 40 -23 41 -21 25 35 -10 37 -9
40 26 76 l37 38 -50 7 c-48 6 -51 9 -70 53 l-21 47 -20 -47z"/>
<path d="M3727 2032 c-21 -23 -50 -92 -42 -100 4 -4 41 -21 83 -39 55 -23 79
-28 84 -20 14 22 8 37 -19 49 l-28 11 35 8 c31 7 60 31 60 51 0 5 -18 5 -40 2
-32 -5 -40 -4 -40 9 0 42 -63 62 -93 29z m50 -48 c8 -21 -13 -42 -28 -27 -13
13 -5 43 11 43 6 0 13 -7 17 -16z"/>
<path d="M1118 2003 c-10 -2 -18 -8 -18 -11 0 -15 20 -37 32 -37 21 0 42 -53
28 -70 -8 -10 -8 -19 0 -35 10 -19 14 -18 80 42 39 35 70 67 70 71 0 5 -5 17
-10 28 -9 16 -21 19 -88 18 -42 -1 -85 -3 -94 -6z m110 -59 c-9 -9 -21 -13
-27 -10 -20 13 -11 26 16 26 25 0 26 -1 11 -16z"/>
<path d="M3636 1861 c-14 -27 -26 -51 -26 -54 0 -6 143 -87 153 -87 10 0 57
92 51 101 -10 17 -33 9 -46 -16 -9 -16 -17 -22 -27 -16 -10 7 -11 13 -2 30 7
12 9 26 6 31 -10 17 -33 11 -40 -10 -6 -20 -35 -28 -35 -10 0 6 7 21 16 35 14
22 14 24 -4 34 -17 9 -23 4 -46 -38z"/>
<path d="M1265 1838 c-38 -22 -72 -42 -74 -44 -2 -2 8 -23 23 -48 18 -31 31
-43 41 -40 17 7 20 30 5 39 -19 12 -9 24 50 60 52 32 59 39 50 56 -6 10 -14
19 -18 19 -4 0 -38 -19 -77 -42z"/>
<path d="M1346 1709 c-31 -40 -56 -75 -56 -79 0 -4 9 -15 20 -25 20 -18 22
-18 65 3 25 12 45 18 45 12 0 -5 -4 -11 -10 -15 -5 -3 -18 -19 -29 -34 -20
-28 -20 -29 -2 -52 l18 -23 86 38 c86 39 86 39 70 62 l-15 24 -57 -32 -56 -32
31 39 c46 60 48 64 29 85 -17 19 -18 19 -66 -5 -27 -14 -51 -25 -55 -25 -3 0
10 18 30 40 39 43 44 61 22 79 -11 10 -25 -2 -70 -60z"/>
<path d="M3573 1761 c-11 -17 -9 -22 14 -39 27 -19 27 -20 9 -47 -16 -24 -19
-25 -34 -12 -30 25 -39 27 -56 8 -16 -17 -13 -21 58 -74 75 -57 75 -57 90 -35
14 20 13 23 -15 43 l-29 22 19 24 19 24 31 -23 c30 -22 31 -22 41 -3 5 11 10
22 10 25 0 7 -131 106 -139 106 -3 0 -12 -9 -18 -19z"/>
<path d="M3425 1580 c-39 -39 -47 -52 -37 -62 10 -10 17 -10 34 1 19 12 25 8
69 -35 48 -47 49 -47 69 -29 l21 19 -51 51 c-45 46 -49 53 -35 65 12 10 13 16
4 26 -17 20 -20 19 -74 -36z"/>
<path d="M1537 1483 c-73 -43 -77 -46 -62 -63 10 -11 24 -16 36 -13 25 7 61
-25 54 -47 -3 -9 3 -25 15 -35 19 -17 20 -17 26 1 4 11 20 53 36 93 l29 75
-23 18 c-13 10 -25 17 -28 17 -3 0 -40 -21 -83 -46z m66 -33 c-7 -26 -22 -35
-35 -22 -6 6 -2 15 13 26 29 20 28 20 22 -4z"/>
<path d="M3316 1486 c-28 -24 -36 -37 -30 -48 16 -25 99 -128 104 -128 3 0 25
17 49 38 37 32 41 39 29 50 -12 10 -20 8 -40 -8 -21 -16 -28 -17 -37 -6 -9 10
-6 17 15 31 24 15 25 18 10 33 -14 14 -17 14 -36 -3 -15 -14 -23 -16 -32 -7
-9 9 -5 17 16 33 21 17 24 24 15 35 -16 19 -18 18 -63 -20z"/>
<path d="M1716 1378 c-4 -39 -14 -81 -22 -92 -10 -14 -11 -23 -2 -33 15 -19
36 -16 48 7 6 11 35 34 65 51 67 38 73 46 41 60 -19 9 -29 8 -47 -5 -33 -23
-36 -21 -35 20 1 26 -5 40 -20 50 -21 14 -21 13 -28 -58z"/>
<path d="M3188 1394 c-54 -29 -64 -93 -22 -143 64 -76 194 2 149 90 l-15 28
-35 -20 c-42 -25 -46 -31 -36 -48 7 -10 13 -11 31 -1 29 15 24 -7 -6 -27 -17
-11 -23 -10 -42 3 -39 27 -23 84 24 84 12 0 27 6 33 14 10 12 8 17 -8 25 -26
14 -40 13 -73 -5z"/>
<path d="M1876 1314 c-23 -23 -20 -54 10 -85 14 -15 23 -32 19 -39 -4 -7 -15
-2 -30 15 -30 32 -45 32 -45 1 0 -28 42 -66 72 -66 60 0 77 54 31 102 -20 20
-24 31 -16 39 8 8 14 6 22 -9 6 -11 20 -22 31 -25 31 -8 26 37 -6 62 -32 25
-67 27 -88 5z"/>
<path d="M3010 1303 c-51 -20 -76 -70 -60 -119 22 -67 94 -85 149 -38 39 33
43 89 9 128 -23 26 -70 40 -98 29z m60 -64 c17 -31 9 -63 -18 -67 -31 -5 -52
15 -52 48 0 42 51 56 70 19z"/>
<path d="M2062 1173 c-12 -47 -21 -87 -19 -88 1 -2 12 -6 25 -9 19 -6 23 -3
28 23 8 41 20 39 34 -5 8 -22 21 -39 37 -45 14 -5 28 -8 30 -6 2 3 -5 27 -16
55 l-20 50 42 35 42 35 -27 7 c-21 5 -35 1 -64 -21 l-37 -28 8 33 c7 33 -3 50
-30 51 -6 0 -20 -39 -33 -87z"/>
<path d="M2885 1255 c-5 -2 -35 -11 -67 -19 -46 -13 -55 -19 -51 -34 3 -14 11
-18 28 -14 21 4 25 -2 39 -49 9 -29 16 -59 16 -66 0 -18 39 -17 46 1 3 8 -1
39 -10 70 -20 67 -20 63 4 69 12 3 20 14 20 26 0 20 -4 23 -25 16z"/>
<path d="M2266 1193 c-3 -10 -8 -50 -12 -89 l-6 -71 38 -6 c60 -10 71 -8 77
12 4 16 -1 20 -26 23 -21 2 -33 9 -35 21 -3 15 2 18 29 15 46 -4 54 27 9 37
-40 9 -33 31 8 27 26 -3 32 0 32 16 0 34 -104 47 -114 15z"/>
<path d="M2410 1105 l0 -96 57 3 c46 2 59 7 61 21 3 14 -4 17 -32 17 -29 0
-36 4 -36 20 0 16 7 20 31 20 24 0 30 4 27 18 -2 10 -14 18 -31 20 -41 5 -35
32 8 32 28 0 35 4 35 20 0 18 -7 20 -60 20 l-60 0 0 -95z"/>
<path d="M2557 1194 c-3 -3 -4 -20 -2 -37 3 -18 7 -58 11 -90 5 -52 8 -58 27
-55 17 2 23 11 25 36 2 22 8 32 20 32 52 0 82 69 46 104 -15 16 -113 23 -127
10z m88 -54 c0 -8 -8 -16 -17 -18 -13 -2 -18 3 -18 18 0 15 5 20 18 18 9 -2
17 -10 17 -18z"/>
</g>
</svg>
